<mxfile host="app.diagrams.net" agent="Mozilla/5.0 (Windows NT 10.0; Win64; x64) AppleWebKit/537.36 (KHTML, like Gecko) Chrome/129.0.0.0 Safari/537.36" version="24.7.17">
  <diagram id="C5RBs43oDa-KdzZeNtuy" name="Page-1">
    <mxGraphModel dx="10428" dy="5201" grid="1" gridSize="10" guides="1" tooltips="1" connect="1" arrows="1" fold="1" page="1" pageScale="1" pageWidth="827" pageHeight="1169" math="0" shadow="0">
      <root>
        <mxCell id="WIyWlLk6GJQsqaUBKTNV-0" />
        <mxCell id="WIyWlLk6GJQsqaUBKTNV-1" parent="WIyWlLk6GJQsqaUBKTNV-0" />
        <mxCell id="ei2Sv1cbS7kGqgdP0loZ-4" value="" style="edgeStyle=orthogonalEdgeStyle;rounded=0;orthogonalLoop=1;jettySize=auto;html=1;" parent="WIyWlLk6GJQsqaUBKTNV-1" source="ei2Sv1cbS7kGqgdP0loZ-0" target="ei2Sv1cbS7kGqgdP0loZ-3" edge="1">
          <mxGeometry relative="1" as="geometry" />
        </mxCell>
        <mxCell id="ei2Sv1cbS7kGqgdP0loZ-0" value="start" style="strokeWidth=2;html=1;shape=mxgraph.flowchart.start_1;whiteSpace=wrap;" parent="WIyWlLk6GJQsqaUBKTNV-1" vertex="1">
          <mxGeometry x="380" y="-2320" width="100" height="60" as="geometry" />
        </mxCell>
        <mxCell id="ei2Sv1cbS7kGqgdP0loZ-14" value="" style="edgeStyle=orthogonalEdgeStyle;rounded=0;orthogonalLoop=1;jettySize=auto;html=1;" parent="WIyWlLk6GJQsqaUBKTNV-1" source="ei2Sv1cbS7kGqgdP0loZ-3" target="ei2Sv1cbS7kGqgdP0loZ-6" edge="1">
          <mxGeometry relative="1" as="geometry" />
        </mxCell>
        <mxCell id="ei2Sv1cbS7kGqgdP0loZ-3" value="pengguna = [[&quot;angel&quot;, &quot;angel123&quot;, &quot;admin&quot;], [&quot;augustin1&quot;, &quot;augustin123&quot;, &quot;user&quot;]]" style="whiteSpace=wrap;html=1;strokeWidth=2;" parent="WIyWlLk6GJQsqaUBKTNV-1" vertex="1">
          <mxGeometry x="310" y="-2220" width="240" height="60" as="geometry" />
        </mxCell>
        <mxCell id="ei2Sv1cbS7kGqgdP0loZ-11" value="" style="edgeStyle=orthogonalEdgeStyle;rounded=0;orthogonalLoop=1;jettySize=auto;html=1;" parent="WIyWlLk6GJQsqaUBKTNV-1" source="ei2Sv1cbS7kGqgdP0loZ-6" target="ei2Sv1cbS7kGqgdP0loZ-10" edge="1">
          <mxGeometry relative="1" as="geometry" />
        </mxCell>
        <mxCell id="ei2Sv1cbS7kGqgdP0loZ-6" value="nama_event = {&quot;bazar makanan&quot;, &quot;pameran seni&quot;, &quot;festival musik&quot;, &quot;event lari&quot;}" style="whiteSpace=wrap;html=1;strokeWidth=2;" parent="WIyWlLk6GJQsqaUBKTNV-1" vertex="1">
          <mxGeometry x="310" y="-2120" width="240" height="60" as="geometry" />
        </mxCell>
        <mxCell id="ei2Sv1cbS7kGqgdP0loZ-13" value="" style="edgeStyle=orthogonalEdgeStyle;rounded=0;orthogonalLoop=1;jettySize=auto;html=1;" parent="WIyWlLk6GJQsqaUBKTNV-1" source="ei2Sv1cbS7kGqgdP0loZ-10" target="ei2Sv1cbS7kGqgdP0loZ-12" edge="1">
          <mxGeometry relative="1" as="geometry" />
        </mxCell>
        <mxCell id="ei2Sv1cbS7kGqgdP0loZ-10" value="loop" style="strokeWidth=2;html=1;shape=mxgraph.flowchart.start_1;whiteSpace=wrap;" parent="WIyWlLk6GJQsqaUBKTNV-1" vertex="1">
          <mxGeometry x="380" y="-2020" width="100" height="60" as="geometry" />
        </mxCell>
        <mxCell id="ei2Sv1cbS7kGqgdP0loZ-16" value="" style="edgeStyle=orthogonalEdgeStyle;rounded=0;orthogonalLoop=1;jettySize=auto;html=1;" parent="WIyWlLk6GJQsqaUBKTNV-1" source="ei2Sv1cbS7kGqgdP0loZ-12" target="ei2Sv1cbS7kGqgdP0loZ-15" edge="1">
          <mxGeometry relative="1" as="geometry" />
        </mxCell>
        <mxCell id="ei2Sv1cbS7kGqgdP0loZ-12" value="&amp;nbsp; &amp;nbsp; &amp;nbsp; &amp;nbsp;print(&quot;1. Registrasi pengguna baru&quot;,&amp;nbsp;&lt;div&gt;&lt;span style=&quot;background-color: initial;&quot;&gt;&quot;2. Login&quot;&lt;/span&gt;&lt;/div&gt;&lt;div&gt;&quot;3. Keluar&quot;)&lt;/div&gt;" style="shape=parallelogram;html=1;strokeWidth=2;perimeter=parallelogramPerimeter;whiteSpace=wrap;rounded=1;arcSize=12;size=0.23;" parent="WIyWlLk6GJQsqaUBKTNV-1" vertex="1">
          <mxGeometry x="280" y="-1920" width="300" height="60" as="geometry" />
        </mxCell>
        <mxCell id="ei2Sv1cbS7kGqgdP0loZ-18" value="" style="edgeStyle=orthogonalEdgeStyle;rounded=0;orthogonalLoop=1;jettySize=auto;html=1;" parent="WIyWlLk6GJQsqaUBKTNV-1" source="ei2Sv1cbS7kGqgdP0loZ-15" target="ei2Sv1cbS7kGqgdP0loZ-17" edge="1">
          <mxGeometry relative="1" as="geometry" />
        </mxCell>
        <mxCell id="ei2Sv1cbS7kGqgdP0loZ-15" value="pilihan = input(&quot;Pilih opsi 1/2/3: &quot;)" style="shape=parallelogram;html=1;strokeWidth=2;perimeter=parallelogramPerimeter;whiteSpace=wrap;rounded=1;arcSize=12;size=0.23;" parent="WIyWlLk6GJQsqaUBKTNV-1" vertex="1">
          <mxGeometry x="280" y="-1820" width="300" height="60" as="geometry" />
        </mxCell>
        <mxCell id="ei2Sv1cbS7kGqgdP0loZ-19" value="" style="endArrow=none;html=1;rounded=0;" parent="WIyWlLk6GJQsqaUBKTNV-1" edge="1">
          <mxGeometry width="50" height="50" relative="1" as="geometry">
            <mxPoint x="330" y="-1680.5300000000002" as="sourcePoint" />
            <mxPoint x="-3080" y="-1680" as="targetPoint" />
            <Array as="points">
              <mxPoint x="390" y="-1680" />
            </Array>
          </mxGeometry>
        </mxCell>
        <mxCell id="ei2Sv1cbS7kGqgdP0loZ-20" value="" style="endArrow=none;html=1;rounded=0;" parent="WIyWlLk6GJQsqaUBKTNV-1" edge="1">
          <mxGeometry width="50" height="50" relative="1" as="geometry">
            <mxPoint x="470" y="-1680.38" as="sourcePoint" />
            <mxPoint x="640" y="-1680" as="targetPoint" />
          </mxGeometry>
        </mxCell>
        <mxCell id="ei2Sv1cbS7kGqgdP0loZ-21" value="" style="endArrow=classic;html=1;rounded=0;" parent="WIyWlLk6GJQsqaUBKTNV-1" source="ei2Sv1cbS7kGqgdP0loZ-17" edge="1">
          <mxGeometry width="50" height="50" relative="1" as="geometry">
            <mxPoint x="370" y="-1640" as="sourcePoint" />
            <mxPoint x="430" y="-1700" as="targetPoint" />
          </mxGeometry>
        </mxCell>
        <mxCell id="ei2Sv1cbS7kGqgdP0loZ-22" value="" style="endArrow=classic;html=1;rounded=0;" parent="WIyWlLk6GJQsqaUBKTNV-1" edge="1">
          <mxGeometry width="50" height="50" relative="1" as="geometry">
            <mxPoint x="634" y="-1680" as="sourcePoint" />
            <mxPoint x="634" y="-1630" as="targetPoint" />
          </mxGeometry>
        </mxCell>
        <mxCell id="ei2Sv1cbS7kGqgdP0loZ-17" value="if pilihan == 1" style="rhombus;whiteSpace=wrap;html=1;strokeWidth=2;rounded=1;arcSize=12;" parent="WIyWlLk6GJQsqaUBKTNV-1" vertex="1">
          <mxGeometry x="390" y="-1720" width="80" height="80" as="geometry" />
        </mxCell>
        <mxCell id="ei2Sv1cbS7kGqgdP0loZ-30" value="" style="edgeStyle=orthogonalEdgeStyle;rounded=0;orthogonalLoop=1;jettySize=auto;html=1;" parent="WIyWlLk6GJQsqaUBKTNV-1" source="ei2Sv1cbS7kGqgdP0loZ-24" target="ei2Sv1cbS7kGqgdP0loZ-29" edge="1">
          <mxGeometry relative="1" as="geometry" />
        </mxCell>
        <mxCell id="ei2Sv1cbS7kGqgdP0loZ-24" value="username = input(&quot;Masukkan username baru: &quot;)&lt;div&gt;password = input(&quot;Masukkan password baru: &quot;)&lt;/div&gt;" style="shape=parallelogram;html=1;strokeWidth=2;perimeter=parallelogramPerimeter;whiteSpace=wrap;rounded=1;arcSize=12;size=0.23;" parent="WIyWlLk6GJQsqaUBKTNV-1" vertex="1">
          <mxGeometry x="450" y="-1630" width="370" height="60" as="geometry" />
        </mxCell>
        <mxCell id="ei2Sv1cbS7kGqgdP0loZ-29" value="if user[0] == username&lt;div&gt;and user [1] == password&lt;/div&gt;" style="rhombus;whiteSpace=wrap;html=1;strokeWidth=2;rounded=1;arcSize=12;" parent="WIyWlLk6GJQsqaUBKTNV-1" vertex="1">
          <mxGeometry x="540" y="-1510" width="190" height="140" as="geometry" />
        </mxCell>
        <mxCell id="SxVaqr2VcNqw4Pzim6or-1" value="" style="endArrow=classic;html=1;rounded=0;" parent="WIyWlLk6GJQsqaUBKTNV-1" edge="1">
          <mxGeometry width="50" height="50" relative="1" as="geometry">
            <mxPoint x="910" y="-1440" as="sourcePoint" />
            <mxPoint x="910" y="-1360" as="targetPoint" />
          </mxGeometry>
        </mxCell>
        <mxCell id="SxVaqr2VcNqw4Pzim6or-2" value="" style="endArrow=none;html=1;rounded=0;" parent="WIyWlLk6GJQsqaUBKTNV-1" edge="1">
          <mxGeometry width="50" height="50" relative="1" as="geometry">
            <mxPoint x="730" y="-1440" as="sourcePoint" />
            <mxPoint x="910" y="-1440" as="targetPoint" />
          </mxGeometry>
        </mxCell>
        <mxCell id="SxVaqr2VcNqw4Pzim6or-5" value="user_login = user" style="rounded=1;whiteSpace=wrap;html=1;absoluteArcSize=1;arcSize=14;strokeWidth=2;" parent="WIyWlLk6GJQsqaUBKTNV-1" vertex="1">
          <mxGeometry x="850" y="-1360" width="120" height="80" as="geometry" />
        </mxCell>
        <mxCell id="SxVaqr2VcNqw4Pzim6or-7" value="" style="endArrow=classic;html=1;rounded=0;" parent="WIyWlLk6GJQsqaUBKTNV-1" edge="1">
          <mxGeometry width="50" height="50" relative="1" as="geometry">
            <mxPoint x="910" y="-1280" as="sourcePoint" />
            <mxPoint x="910" y="-1200" as="targetPoint" />
          </mxGeometry>
        </mxCell>
        <mxCell id="SxVaqr2VcNqw4Pzim6or-8" value="print(f&quot;Login berhasil&amp;nbsp;&lt;div&gt;{user} ({user[2]}).&quot;)&lt;/div&gt;" style="shape=parallelogram;perimeter=parallelogramPerimeter;whiteSpace=wrap;html=1;fixedSize=1;strokeWidth=2;rounded=1;arcSize=12;" parent="WIyWlLk6GJQsqaUBKTNV-1" vertex="1">
          <mxGeometry x="800" y="-1200" width="220" height="80" as="geometry" />
        </mxCell>
        <mxCell id="SxVaqr2VcNqw4Pzim6or-10" value="" style="endArrow=none;html=1;rounded=0;" parent="WIyWlLk6GJQsqaUBKTNV-1" edge="1">
          <mxGeometry width="50" height="50" relative="1" as="geometry">
            <mxPoint x="350" y="-1440" as="sourcePoint" />
            <mxPoint x="540" y="-1440" as="targetPoint" />
          </mxGeometry>
        </mxCell>
        <mxCell id="SxVaqr2VcNqw4Pzim6or-13" value="false" style="text;html=1;align=center;verticalAlign=middle;whiteSpace=wrap;rounded=0;" parent="WIyWlLk6GJQsqaUBKTNV-1" vertex="1">
          <mxGeometry x="400" y="-1480" width="80" height="40" as="geometry" />
        </mxCell>
        <mxCell id="SxVaqr2VcNqw4Pzim6or-14" value="true" style="text;html=1;align=center;verticalAlign=middle;whiteSpace=wrap;rounded=0;" parent="WIyWlLk6GJQsqaUBKTNV-1" vertex="1">
          <mxGeometry x="800" y="-1470" width="60" height="30" as="geometry" />
        </mxCell>
        <mxCell id="SxVaqr2VcNqw4Pzim6or-15" value="false" style="text;html=1;align=center;verticalAlign=middle;whiteSpace=wrap;rounded=0;" parent="WIyWlLk6GJQsqaUBKTNV-1" vertex="1">
          <mxGeometry x="260" y="-1710" width="60" height="30" as="geometry" />
        </mxCell>
        <mxCell id="SxVaqr2VcNqw4Pzim6or-16" value="true" style="text;html=1;align=center;verticalAlign=middle;whiteSpace=wrap;rounded=0;" parent="WIyWlLk6GJQsqaUBKTNV-1" vertex="1">
          <mxGeometry x="520" y="-1710" width="60" height="30" as="geometry" />
        </mxCell>
        <mxCell id="SxVaqr2VcNqw4Pzim6or-18" value="" style="endArrow=classic;html=1;rounded=0;" parent="WIyWlLk6GJQsqaUBKTNV-1" target="SxVaqr2VcNqw4Pzim6or-21" edge="1">
          <mxGeometry width="50" height="50" relative="1" as="geometry">
            <mxPoint x="350" y="-1440" as="sourcePoint" />
            <mxPoint x="350" y="-1360" as="targetPoint" />
          </mxGeometry>
        </mxCell>
        <mxCell id="SxVaqr2VcNqw4Pzim6or-21" value="if not user_login" style="strokeWidth=2;html=1;shape=mxgraph.flowchart.decision;whiteSpace=wrap;" parent="WIyWlLk6GJQsqaUBKTNV-1" vertex="1">
          <mxGeometry x="280" y="-1360" width="140" height="100" as="geometry" />
        </mxCell>
        <mxCell id="SxVaqr2VcNqw4Pzim6or-22" value="" style="endArrow=none;html=1;rounded=0;" parent="WIyWlLk6GJQsqaUBKTNV-1" edge="1">
          <mxGeometry width="50" height="50" relative="1" as="geometry">
            <mxPoint x="420" y="-1310" as="sourcePoint" />
            <mxPoint x="560" y="-1310" as="targetPoint" />
          </mxGeometry>
        </mxCell>
        <mxCell id="SxVaqr2VcNqw4Pzim6or-23" value="" style="endArrow=classic;html=1;rounded=0;" parent="WIyWlLk6GJQsqaUBKTNV-1" target="SxVaqr2VcNqw4Pzim6or-24" edge="1">
          <mxGeometry width="50" height="50" relative="1" as="geometry">
            <mxPoint x="560" y="-1310" as="sourcePoint" />
            <mxPoint x="560" y="-1230" as="targetPoint" />
          </mxGeometry>
        </mxCell>
        <mxCell id="SxVaqr2VcNqw4Pzim6or-24" value="print(&quot;login gagal" style="shape=parallelogram;html=1;strokeWidth=2;perimeter=parallelogramPerimeter;whiteSpace=wrap;rounded=1;arcSize=12;size=0.23;" parent="WIyWlLk6GJQsqaUBKTNV-1" vertex="1">
          <mxGeometry x="490" y="-1180" width="140" height="60" as="geometry" />
        </mxCell>
        <mxCell id="SxVaqr2VcNqw4Pzim6or-25" value="" style="endArrow=none;html=1;rounded=0;" parent="WIyWlLk6GJQsqaUBKTNV-1" edge="1">
          <mxGeometry width="50" height="50" relative="1" as="geometry">
            <mxPoint x="90" y="-1310" as="sourcePoint" />
            <mxPoint x="280" y="-1310" as="targetPoint" />
          </mxGeometry>
        </mxCell>
        <mxCell id="SxVaqr2VcNqw4Pzim6or-26" value="" style="endArrow=classic;html=1;rounded=0;" parent="WIyWlLk6GJQsqaUBKTNV-1" target="SxVaqr2VcNqw4Pzim6or-27" edge="1">
          <mxGeometry width="50" height="50" relative="1" as="geometry">
            <mxPoint x="90" y="-1310" as="sourcePoint" />
            <mxPoint x="90" y="-1240" as="targetPoint" />
          </mxGeometry>
        </mxCell>
        <mxCell id="SxVaqr2VcNqw4Pzim6or-27" value="if user_login[2]" style="strokeWidth=2;html=1;shape=mxgraph.flowchart.decision;whiteSpace=wrap;" parent="WIyWlLk6GJQsqaUBKTNV-1" vertex="1">
          <mxGeometry x="10" y="-1240" width="160" height="100" as="geometry" />
        </mxCell>
        <mxCell id="SxVaqr2VcNqw4Pzim6or-29" value="" style="endArrow=none;html=1;rounded=0;" parent="WIyWlLk6GJQsqaUBKTNV-1" edge="1">
          <mxGeometry width="50" height="50" relative="1" as="geometry">
            <mxPoint x="170" y="-1190" as="sourcePoint" />
            <mxPoint x="260" y="-1190" as="targetPoint" />
          </mxGeometry>
        </mxCell>
        <mxCell id="SxVaqr2VcNqw4Pzim6or-30" value="" style="endArrow=classic;html=1;rounded=0;" parent="WIyWlLk6GJQsqaUBKTNV-1" edge="1">
          <mxGeometry width="50" height="50" relative="1" as="geometry">
            <mxPoint x="260" y="-1190" as="sourcePoint" />
            <mxPoint x="260" y="-1130" as="targetPoint" />
          </mxGeometry>
        </mxCell>
        <mxCell id="SxVaqr2VcNqw4Pzim6or-33" value="print(&quot;1. Tampilkan semua admin&lt;div&gt;2. Hapus event pengguna&lt;/div&gt;&lt;div&gt;3. Logout&lt;/div&gt;" style="shape=parallelogram;html=1;strokeWidth=2;perimeter=parallelogramPerimeter;whiteSpace=wrap;rounded=1;arcSize=12;size=0.23;" parent="WIyWlLk6GJQsqaUBKTNV-1" vertex="1">
          <mxGeometry x="135" y="-1020" width="250" height="90" as="geometry" />
        </mxCell>
        <mxCell id="SxVaqr2VcNqw4Pzim6or-36" value="admin_pilihan=input&lt;div&gt;(&quot;pilih opsi :&quot;)&lt;/div&gt;" style="shape=parallelogram;html=1;strokeWidth=2;perimeter=parallelogramPerimeter;whiteSpace=wrap;rounded=1;arcSize=12;size=0.23;" parent="WIyWlLk6GJQsqaUBKTNV-1" vertex="1">
          <mxGeometry x="180" y="-870" width="160" height="60" as="geometry" />
        </mxCell>
        <mxCell id="SxVaqr2VcNqw4Pzim6or-40" value="" style="endArrow=none;html=1;rounded=0;" parent="WIyWlLk6GJQsqaUBKTNV-1" edge="1">
          <mxGeometry width="50" height="50" relative="1" as="geometry">
            <mxPoint x="310" y="-691.1800000000001" as="sourcePoint" />
            <mxPoint x="480" y="-691.1800000000001" as="targetPoint" />
          </mxGeometry>
        </mxCell>
        <mxCell id="SxVaqr2VcNqw4Pzim6or-42" value="print(&quot;nama_event&quot;)" style="shape=parallelogram;html=1;strokeWidth=2;perimeter=parallelogramPerimeter;whiteSpace=wrap;rounded=1;arcSize=12;size=0.23;" parent="WIyWlLk6GJQsqaUBKTNV-1" vertex="1">
          <mxGeometry x="400" y="-600" width="160" height="60" as="geometry" />
        </mxCell>
        <mxCell id="SxVaqr2VcNqw4Pzim6or-48" value="" style="endArrow=classic;html=1;rounded=0;" parent="WIyWlLk6GJQsqaUBKTNV-1" edge="1">
          <mxGeometry width="50" height="50" relative="1" as="geometry">
            <mxPoint x="60" y="-690" as="sourcePoint" />
            <mxPoint x="60" y="-600" as="targetPoint" />
          </mxGeometry>
        </mxCell>
        <mxCell id="SxVaqr2VcNqw4Pzim6or-50" value="LOOP" style="strokeWidth=2;html=1;shape=mxgraph.flowchart.start_1;whiteSpace=wrap;" parent="WIyWlLk6GJQsqaUBKTNV-1" vertex="1">
          <mxGeometry x="210" y="-1130" width="100" height="60" as="geometry" />
        </mxCell>
        <mxCell id="SxVaqr2VcNqw4Pzim6or-51" value="" style="endArrow=classic;html=1;rounded=0;entryX=0.5;entryY=0;entryDx=0;entryDy=0;" parent="WIyWlLk6GJQsqaUBKTNV-1" target="SxVaqr2VcNqw4Pzim6or-33" edge="1">
          <mxGeometry width="50" height="50" relative="1" as="geometry">
            <mxPoint x="260" y="-1070" as="sourcePoint" />
            <mxPoint x="310" y="-1120" as="targetPoint" />
          </mxGeometry>
        </mxCell>
        <mxCell id="SxVaqr2VcNqw4Pzim6or-52" value="" style="endArrow=classic;html=1;rounded=0;entryX=0.5;entryY=0;entryDx=0;entryDy=0;" parent="WIyWlLk6GJQsqaUBKTNV-1" target="SxVaqr2VcNqw4Pzim6or-36" edge="1">
          <mxGeometry width="50" height="50" relative="1" as="geometry">
            <mxPoint x="260" y="-930" as="sourcePoint" />
            <mxPoint x="310" y="-980" as="targetPoint" />
          </mxGeometry>
        </mxCell>
        <mxCell id="SxVaqr2VcNqw4Pzim6or-53" value="" style="endArrow=classic;html=1;rounded=0;" parent="WIyWlLk6GJQsqaUBKTNV-1" target="SxVaqr2VcNqw4Pzim6or-39" edge="1">
          <mxGeometry width="50" height="50" relative="1" as="geometry">
            <mxPoint x="260" y="-810" as="sourcePoint" />
            <mxPoint x="310" y="-860" as="targetPoint" />
          </mxGeometry>
        </mxCell>
        <mxCell id="SxVaqr2VcNqw4Pzim6or-54" value="" style="endArrow=classic;html=1;rounded=0;" parent="WIyWlLk6GJQsqaUBKTNV-1" target="SxVaqr2VcNqw4Pzim6or-42" edge="1">
          <mxGeometry width="50" height="50" relative="1" as="geometry">
            <mxPoint x="480" y="-690" as="sourcePoint" />
            <mxPoint x="530" y="-740" as="targetPoint" />
          </mxGeometry>
        </mxCell>
        <mxCell id="SxVaqr2VcNqw4Pzim6or-55" value="if pilihan ==2" style="strokeWidth=2;html=1;shape=mxgraph.flowchart.decision;whiteSpace=wrap;" parent="WIyWlLk6GJQsqaUBKTNV-1" vertex="1">
          <mxGeometry x="10" y="-600" width="100" height="100" as="geometry" />
        </mxCell>
        <mxCell id="SxVaqr2VcNqw4Pzim6or-56" value="" style="endArrow=none;html=1;rounded=0;" parent="WIyWlLk6GJQsqaUBKTNV-1" edge="1">
          <mxGeometry width="50" height="50" relative="1" as="geometry">
            <mxPoint x="110" y="-550" as="sourcePoint" />
            <mxPoint x="210" y="-550" as="targetPoint" />
          </mxGeometry>
        </mxCell>
        <mxCell id="SxVaqr2VcNqw4Pzim6or-57" value="" style="endArrow=classic;html=1;rounded=0;" parent="WIyWlLk6GJQsqaUBKTNV-1" target="SxVaqr2VcNqw4Pzim6or-58" edge="1">
          <mxGeometry width="50" height="50" relative="1" as="geometry">
            <mxPoint x="210" y="-550" as="sourcePoint" />
            <mxPoint x="210" y="-460" as="targetPoint" />
          </mxGeometry>
        </mxCell>
        <mxCell id="SxVaqr2VcNqw4Pzim6or-58" value="nama_event=input(&quot;masukkan&lt;div&gt;&amp;nbsp;nama event yg ingin di hapus&quot;)&lt;/div&gt;" style="shape=parallelogram;html=1;strokeWidth=2;perimeter=parallelogramPerimeter;whiteSpace=wrap;rounded=1;arcSize=12;size=0.23;" parent="WIyWlLk6GJQsqaUBKTNV-1" vertex="1">
          <mxGeometry x="90" y="-490" width="240" height="80" as="geometry" />
        </mxCell>
        <mxCell id="SxVaqr2VcNqw4Pzim6or-60" value="" style="endArrow=classic;html=1;rounded=0;" parent="WIyWlLk6GJQsqaUBKTNV-1" target="SxVaqr2VcNqw4Pzim6or-61" edge="1">
          <mxGeometry width="50" height="50" relative="1" as="geometry">
            <mxPoint x="210" y="-410" as="sourcePoint" />
            <mxPoint x="210" y="-320" as="targetPoint" />
          </mxGeometry>
        </mxCell>
        <mxCell id="SxVaqr2VcNqw4Pzim6or-61" value="print(&quot;hapus event pengguna&quot;)" style="shape=parallelogram;html=1;strokeWidth=2;perimeter=parallelogramPerimeter;whiteSpace=wrap;rounded=1;arcSize=12;size=0.23;" parent="WIyWlLk6GJQsqaUBKTNV-1" vertex="1">
          <mxGeometry x="100" y="-340" width="220" height="70" as="geometry" />
        </mxCell>
        <mxCell id="SxVaqr2VcNqw4Pzim6or-62" value="" style="endArrow=none;html=1;rounded=0;" parent="WIyWlLk6GJQsqaUBKTNV-1" edge="1">
          <mxGeometry width="50" height="50" relative="1" as="geometry">
            <mxPoint x="-190" y="-550" as="sourcePoint" />
            <mxPoint x="10" y="-550" as="targetPoint" />
          </mxGeometry>
        </mxCell>
        <mxCell id="SxVaqr2VcNqw4Pzim6or-64" value="" style="endArrow=classic;html=1;rounded=0;" parent="WIyWlLk6GJQsqaUBKTNV-1" edge="1">
          <mxGeometry width="50" height="50" relative="1" as="geometry">
            <mxPoint x="-190" y="-550" as="sourcePoint" />
            <mxPoint x="-190" y="-470" as="targetPoint" />
          </mxGeometry>
        </mxCell>
        <mxCell id="SxVaqr2VcNqw4Pzim6or-65" value="if pilihan ==3" style="strokeWidth=2;html=1;shape=mxgraph.flowchart.decision;whiteSpace=wrap;" parent="WIyWlLk6GJQsqaUBKTNV-1" vertex="1">
          <mxGeometry x="-240" y="-470" width="100" height="100" as="geometry" />
        </mxCell>
        <mxCell id="SxVaqr2VcNqw4Pzim6or-66" value="" style="endArrow=none;html=1;rounded=0;" parent="WIyWlLk6GJQsqaUBKTNV-1" edge="1">
          <mxGeometry width="50" height="50" relative="1" as="geometry">
            <mxPoint x="-140" y="-420" as="sourcePoint" />
            <mxPoint x="-60" y="-420" as="targetPoint" />
          </mxGeometry>
        </mxCell>
        <mxCell id="SxVaqr2VcNqw4Pzim6or-67" value="" style="endArrow=classic;html=1;rounded=0;" parent="WIyWlLk6GJQsqaUBKTNV-1" target="SxVaqr2VcNqw4Pzim6or-68" edge="1">
          <mxGeometry width="50" height="50" relative="1" as="geometry">
            <mxPoint x="-60" y="-420" as="sourcePoint" />
            <mxPoint x="-60" y="-360" as="targetPoint" />
          </mxGeometry>
        </mxCell>
        <mxCell id="SxVaqr2VcNqw4Pzim6or-68" value="print(&quot;logout berhasil&quot;)" style="shape=parallelogram;html=1;strokeWidth=2;perimeter=parallelogramPerimeter;whiteSpace=wrap;rounded=1;arcSize=12;size=0.23;" parent="WIyWlLk6GJQsqaUBKTNV-1" vertex="1">
          <mxGeometry x="-140" y="-370" width="160" height="60" as="geometry" />
        </mxCell>
        <mxCell id="O0jtIF-eBYTBPyKsJRrT-0" value="" style="endArrow=none;html=1;rounded=0;fontSize=12;startSize=8;endSize=8;curved=1;" parent="WIyWlLk6GJQsqaUBKTNV-1" edge="1">
          <mxGeometry width="50" height="50" relative="1" as="geometry">
            <mxPoint x="-350" y="-420" as="sourcePoint" />
            <mxPoint x="-240" y="-420" as="targetPoint" />
          </mxGeometry>
        </mxCell>
        <mxCell id="O0jtIF-eBYTBPyKsJRrT-1" value="" style="endArrow=classic;html=1;rounded=0;fontSize=12;startSize=8;endSize=8;curved=1;" parent="WIyWlLk6GJQsqaUBKTNV-1" target="O0jtIF-eBYTBPyKsJRrT-2" edge="1">
          <mxGeometry width="50" height="50" relative="1" as="geometry">
            <mxPoint x="-350" y="-420" as="sourcePoint" />
            <mxPoint x="-350" y="-340" as="targetPoint" />
          </mxGeometry>
        </mxCell>
        <mxCell id="O0jtIF-eBYTBPyKsJRrT-2" value="print(&quot;pilihan tidak&lt;div&gt;&amp;nbsp;valid&quot;)&lt;/div&gt;" style="shape=parallelogram;html=1;strokeWidth=2;perimeter=parallelogramPerimeter;whiteSpace=wrap;rounded=1;arcSize=12;size=0.23;" parent="WIyWlLk6GJQsqaUBKTNV-1" vertex="1">
          <mxGeometry x="-420" y="-370" width="140" height="60" as="geometry" />
        </mxCell>
        <mxCell id="DZPZUwkXxejj2CQEaa6J-0" value="" style="endArrow=none;html=1;rounded=0;fontSize=12;startSize=8;endSize=8;curved=1;" parent="WIyWlLk6GJQsqaUBKTNV-1" edge="1">
          <mxGeometry width="50" height="50" relative="1" as="geometry">
            <mxPoint x="-700" y="-1190" as="sourcePoint" />
            <mxPoint x="10" y="-1190" as="targetPoint" />
          </mxGeometry>
        </mxCell>
        <mxCell id="DZPZUwkXxejj2CQEaa6J-1" value="" style="endArrow=classic;html=1;rounded=0;fontSize=12;startSize=8;endSize=8;curved=1;" parent="WIyWlLk6GJQsqaUBKTNV-1" edge="1">
          <mxGeometry width="50" height="50" relative="1" as="geometry">
            <mxPoint x="-700" y="-1190" as="sourcePoint" />
            <mxPoint x="-700" y="-1110" as="targetPoint" />
          </mxGeometry>
        </mxCell>
        <mxCell id="DZPZUwkXxejj2CQEaa6J-6" value="" style="edgeStyle=none;curved=1;rounded=0;orthogonalLoop=1;jettySize=auto;html=1;fontSize=12;startSize=8;endSize=8;" parent="WIyWlLk6GJQsqaUBKTNV-1" edge="1">
          <mxGeometry relative="1" as="geometry">
            <mxPoint x="-700.0044258511252" y="-1006.6767974610503" as="sourcePoint" />
            <mxPoint x="-700" y="-930" as="targetPoint" />
          </mxGeometry>
        </mxCell>
        <mxCell id="DZPZUwkXxejj2CQEaa6J-2" value="&amp;nbsp; &amp;nbsp; &amp;nbsp; print(&quot;1. Tambah event&lt;div&gt;2. Tampilkan event&lt;/div&gt;&lt;div&gt;3. Ubah event&lt;/div&gt;&lt;div&gt;4. Hapus event&lt;/div&gt;&lt;div&gt;5. Logout&quot;)&lt;/div&gt;" style="shape=parallelogram;html=1;strokeWidth=2;perimeter=parallelogramPerimeter;whiteSpace=wrap;rounded=1;arcSize=12;size=0.23;" parent="WIyWlLk6GJQsqaUBKTNV-1" vertex="1">
          <mxGeometry x="-790" y="-1110" width="180" height="100" as="geometry" />
        </mxCell>
        <mxCell id="DZPZUwkXxejj2CQEaa6J-8" value="" style="edgeStyle=none;curved=1;rounded=0;orthogonalLoop=1;jettySize=auto;html=1;fontSize=12;startSize=8;endSize=8;" parent="WIyWlLk6GJQsqaUBKTNV-1" source="DZPZUwkXxejj2CQEaa6J-5" target="DZPZUwkXxejj2CQEaa6J-7" edge="1">
          <mxGeometry relative="1" as="geometry" />
        </mxCell>
        <mxCell id="DZPZUwkXxejj2CQEaa6J-5" value="user_pilihan=input&lt;div&gt;(&quot;pilih opsi&quot;)&lt;/div&gt;" style="shape=parallelogram;perimeter=parallelogramPerimeter;whiteSpace=wrap;html=1;fixedSize=1;strokeWidth=2;rounded=1;arcSize=12;" parent="WIyWlLk6GJQsqaUBKTNV-1" vertex="1">
          <mxGeometry x="-760" y="-930" width="120" height="60" as="geometry" />
        </mxCell>
        <mxCell id="DZPZUwkXxejj2CQEaa6J-7" value="if pilihan ==1" style="rhombus;whiteSpace=wrap;html=1;strokeWidth=2;rounded=1;arcSize=12;" parent="WIyWlLk6GJQsqaUBKTNV-1" vertex="1">
          <mxGeometry x="-750" y="-790" width="100" height="80" as="geometry" />
        </mxCell>
        <mxCell id="DZPZUwkXxejj2CQEaa6J-9" value="" style="endArrow=none;html=1;rounded=0;fontSize=12;startSize=8;endSize=8;curved=1;" parent="WIyWlLk6GJQsqaUBKTNV-1" edge="1">
          <mxGeometry width="50" height="50" relative="1" as="geometry">
            <mxPoint x="-650" y="-750" as="sourcePoint" />
            <mxPoint x="-560" y="-750" as="targetPoint" />
          </mxGeometry>
        </mxCell>
        <mxCell id="DZPZUwkXxejj2CQEaa6J-10" value="" style="endArrow=classic;html=1;rounded=0;fontSize=12;startSize=8;endSize=8;curved=1;" parent="WIyWlLk6GJQsqaUBKTNV-1" target="DZPZUwkXxejj2CQEaa6J-11" edge="1">
          <mxGeometry width="50" height="50" relative="1" as="geometry">
            <mxPoint x="-560" y="-750" as="sourcePoint" />
            <mxPoint x="-560" y="-690" as="targetPoint" />
          </mxGeometry>
        </mxCell>
        <mxCell id="DZPZUwkXxejj2CQEaa6J-14" value="" style="edgeStyle=none;curved=1;rounded=0;orthogonalLoop=1;jettySize=auto;html=1;fontSize=12;startSize=8;endSize=8;" parent="WIyWlLk6GJQsqaUBKTNV-1" source="DZPZUwkXxejj2CQEaa6J-11" target="DZPZUwkXxejj2CQEaa6J-13" edge="1">
          <mxGeometry relative="1" as="geometry" />
        </mxCell>
        <mxCell id="DZPZUwkXxejj2CQEaa6J-11" value="print(&quot;Tambah&amp;nbsp;&lt;div&gt;event&quot;)&lt;/div&gt;" style="shape=parallelogram;html=1;strokeWidth=2;perimeter=parallelogramPerimeter;whiteSpace=wrap;rounded=1;arcSize=12;size=0.23;" parent="WIyWlLk6GJQsqaUBKTNV-1" vertex="1">
          <mxGeometry x="-620" y="-720" width="120" height="50" as="geometry" />
        </mxCell>
        <mxCell id="DZPZUwkXxejj2CQEaa6J-16" value="" style="edgeStyle=none;curved=1;rounded=0;orthogonalLoop=1;jettySize=auto;html=1;fontSize=12;startSize=8;endSize=8;" parent="WIyWlLk6GJQsqaUBKTNV-1" source="DZPZUwkXxejj2CQEaa6J-13" target="DZPZUwkXxejj2CQEaa6J-15" edge="1">
          <mxGeometry relative="1" as="geometry" />
        </mxCell>
        <mxCell id="DZPZUwkXxejj2CQEaa6J-13" value="nama_event=input(&quot;asukkan nama event&quot;)&lt;div&gt;tanggal=input(&quot;Masukkan tanggal&quot;)&lt;/div&gt;&lt;div&gt;waktu=input(&quot;Masukkan waktu&quot;)&lt;/div&gt;&lt;div&gt;deskripsi=input(&quot;Masukkan deskripsi&quot;)&lt;/div&gt;" style="shape=parallelogram;perimeter=parallelogramPerimeter;whiteSpace=wrap;html=1;fixedSize=1;strokeWidth=2;rounded=1;arcSize=12;" parent="WIyWlLk6GJQsqaUBKTNV-1" vertex="1">
          <mxGeometry x="-690" y="-614" width="260" height="94" as="geometry" />
        </mxCell>
        <mxCell id="DZPZUwkXxejj2CQEaa6J-15" value="print(f&quot;Event&#39; {nama_event}&#39; berhasil ditambahkan&quot;)" style="whiteSpace=wrap;html=1;strokeWidth=2;rounded=1;arcSize=12;" parent="WIyWlLk6GJQsqaUBKTNV-1" vertex="1">
          <mxGeometry x="-650" y="-470" width="180" height="60" as="geometry" />
        </mxCell>
        <mxCell id="DZPZUwkXxejj2CQEaa6J-17" value="" style="endArrow=none;html=1;rounded=0;fontSize=12;startSize=8;endSize=8;curved=1;" parent="WIyWlLk6GJQsqaUBKTNV-1" edge="1">
          <mxGeometry width="50" height="50" relative="1" as="geometry">
            <mxPoint x="-960" y="-750" as="sourcePoint" />
            <mxPoint x="-750" y="-750" as="targetPoint" />
          </mxGeometry>
        </mxCell>
        <mxCell id="DZPZUwkXxejj2CQEaa6J-18" value="" style="endArrow=classic;html=1;rounded=0;fontSize=12;startSize=8;endSize=8;curved=1;" parent="WIyWlLk6GJQsqaUBKTNV-1" edge="1">
          <mxGeometry width="50" height="50" relative="1" as="geometry">
            <mxPoint x="-960" y="-750" as="sourcePoint" />
            <mxPoint x="-960" y="-680" as="targetPoint" />
          </mxGeometry>
        </mxCell>
        <mxCell id="DZPZUwkXxejj2CQEaa6J-19" value="if pilihan ==2" style="strokeWidth=2;html=1;shape=mxgraph.flowchart.decision;whiteSpace=wrap;" parent="WIyWlLk6GJQsqaUBKTNV-1" vertex="1">
          <mxGeometry x="-1010" y="-680" width="100" height="90" as="geometry" />
        </mxCell>
        <mxCell id="DZPZUwkXxejj2CQEaa6J-21" value="" style="endArrow=none;html=1;rounded=0;fontSize=12;startSize=8;endSize=8;curved=1;" parent="WIyWlLk6GJQsqaUBKTNV-1" edge="1">
          <mxGeometry width="50" height="50" relative="1" as="geometry">
            <mxPoint x="-910" y="-640" as="sourcePoint" />
            <mxPoint x="-830" y="-640" as="targetPoint" />
          </mxGeometry>
        </mxCell>
        <mxCell id="DZPZUwkXxejj2CQEaa6J-22" value="" style="endArrow=classic;html=1;rounded=0;fontSize=12;startSize=8;endSize=8;curved=1;" parent="WIyWlLk6GJQsqaUBKTNV-1" edge="1">
          <mxGeometry width="50" height="50" relative="1" as="geometry">
            <mxPoint x="-830" y="-640" as="sourcePoint" />
            <mxPoint x="-830" y="-570" as="targetPoint" />
          </mxGeometry>
        </mxCell>
        <mxCell id="DZPZUwkXxejj2CQEaa6J-26" value="" style="edgeStyle=none;curved=1;rounded=0;orthogonalLoop=1;jettySize=auto;html=1;fontSize=12;startSize=8;endSize=8;" parent="WIyWlLk6GJQsqaUBKTNV-1" source="DZPZUwkXxejj2CQEaa6J-23" target="DZPZUwkXxejj2CQEaa6J-25" edge="1">
          <mxGeometry relative="1" as="geometry" />
        </mxCell>
        <mxCell id="DZPZUwkXxejj2CQEaa6J-23" value="print(f&quot;Event untuk {pengguna_ditemukan[0]}&quot;)" style="shape=parallelogram;html=1;strokeWidth=2;perimeter=parallelogramPerimeter;whiteSpace=wrap;rounded=1;arcSize=12;size=0.23;" parent="WIyWlLk6GJQsqaUBKTNV-1" vertex="1">
          <mxGeometry x="-930" y="-570" width="210" height="60" as="geometry" />
        </mxCell>
        <mxCell id="DZPZUwkXxejj2CQEaa6J-28" value="" style="edgeStyle=none;curved=1;rounded=0;orthogonalLoop=1;jettySize=auto;html=1;fontSize=12;startSize=8;endSize=8;" parent="WIyWlLk6GJQsqaUBKTNV-1" source="DZPZUwkXxejj2CQEaa6J-25" target="DZPZUwkXxejj2CQEaa6J-27" edge="1">
          <mxGeometry relative="1" as="geometry" />
        </mxCell>
        <mxCell id="DZPZUwkXxejj2CQEaa6J-25" value="ada_event = false" style="rounded=1;whiteSpace=wrap;html=1;strokeWidth=2;arcSize=12;" parent="WIyWlLk6GJQsqaUBKTNV-1" vertex="1">
          <mxGeometry x="-885" y="-440" width="120" height="60" as="geometry" />
        </mxCell>
        <mxCell id="DZPZUwkXxejj2CQEaa6J-27" value="if event[0] == event_ditemukan[0]" style="rhombus;whiteSpace=wrap;html=1;rounded=1;strokeWidth=2;arcSize=12;" parent="WIyWlLk6GJQsqaUBKTNV-1" vertex="1">
          <mxGeometry x="-900" y="-310" width="150" height="80" as="geometry" />
        </mxCell>
        <mxCell id="DZPZUwkXxejj2CQEaa6J-31" value="print(&quot;nama: {event[1]}, tanggal: {event[2]}, waktu: {event[3]}, deskripsi:{event[4]}&quot;)" style="shape=parallelogram;perimeter=parallelogramPerimeter;whiteSpace=wrap;html=1;fixedSize=1;rounded=1;strokeWidth=2;arcSize=12;" parent="WIyWlLk6GJQsqaUBKTNV-1" vertex="1">
          <mxGeometry x="-660" y="-190" width="220" height="60" as="geometry" />
        </mxCell>
        <mxCell id="DZPZUwkXxejj2CQEaa6J-34" value="true" style="text;html=1;align=center;verticalAlign=middle;whiteSpace=wrap;rounded=0;fontSize=16;" parent="WIyWlLk6GJQsqaUBKTNV-1" vertex="1">
          <mxGeometry x="-690" y="-290" width="40" height="10" as="geometry" />
        </mxCell>
        <mxCell id="DZPZUwkXxejj2CQEaa6J-35" value="true" style="text;html=1;align=center;verticalAlign=middle;whiteSpace=wrap;rounded=0;fontSize=16;" parent="WIyWlLk6GJQsqaUBKTNV-1" vertex="1">
          <mxGeometry x="470" y="-1330" width="30" as="geometry" />
        </mxCell>
        <mxCell id="DZPZUwkXxejj2CQEaa6J-36" style="edgeStyle=none;curved=1;rounded=0;orthogonalLoop=1;jettySize=auto;html=1;exitX=0;exitY=0;exitDx=0;exitDy=0;fontSize=12;startSize=8;endSize=8;" parent="WIyWlLk6GJQsqaUBKTNV-1" source="DZPZUwkXxejj2CQEaa6J-35" target="DZPZUwkXxejj2CQEaa6J-35" edge="1">
          <mxGeometry relative="1" as="geometry" />
        </mxCell>
        <mxCell id="DZPZUwkXxejj2CQEaa6J-37" value="false" style="text;html=1;align=center;verticalAlign=middle;whiteSpace=wrap;rounded=0;fontSize=16;" parent="WIyWlLk6GJQsqaUBKTNV-1" vertex="1">
          <mxGeometry x="160" y="-1325" width="40" height="10" as="geometry" />
        </mxCell>
        <mxCell id="DZPZUwkXxejj2CQEaa6J-38" style="edgeStyle=none;curved=1;rounded=0;orthogonalLoop=1;jettySize=auto;html=1;exitX=0;exitY=0;exitDx=0;exitDy=0;fontSize=12;startSize=8;endSize=8;" parent="WIyWlLk6GJQsqaUBKTNV-1" source="DZPZUwkXxejj2CQEaa6J-35" target="DZPZUwkXxejj2CQEaa6J-35" edge="1">
          <mxGeometry relative="1" as="geometry" />
        </mxCell>
        <mxCell id="DZPZUwkXxejj2CQEaa6J-39" style="edgeStyle=none;curved=1;rounded=0;orthogonalLoop=1;jettySize=auto;html=1;exitX=0;exitY=0;exitDx=0;exitDy=0;fontSize=12;startSize=8;endSize=8;" parent="WIyWlLk6GJQsqaUBKTNV-1" source="DZPZUwkXxejj2CQEaa6J-35" target="DZPZUwkXxejj2CQEaa6J-35" edge="1">
          <mxGeometry relative="1" as="geometry" />
        </mxCell>
        <mxCell id="DZPZUwkXxejj2CQEaa6J-42" value="true" style="text;html=1;align=center;verticalAlign=middle;whiteSpace=wrap;rounded=0;fontSize=16;" parent="WIyWlLk6GJQsqaUBKTNV-1" vertex="1">
          <mxGeometry x="180" y="-1230" width="60" height="30" as="geometry" />
        </mxCell>
        <mxCell id="DZPZUwkXxejj2CQEaa6J-43" value="false" style="text;html=1;align=center;verticalAlign=middle;whiteSpace=wrap;rounded=0;fontSize=16;" parent="WIyWlLk6GJQsqaUBKTNV-1" vertex="1">
          <mxGeometry x="-280" y="-1220" width="60" height="30" as="geometry" />
        </mxCell>
        <mxCell id="DZPZUwkXxejj2CQEaa6J-44" value="true" style="text;html=1;align=center;verticalAlign=middle;whiteSpace=wrap;rounded=0;fontSize=16;" parent="WIyWlLk6GJQsqaUBKTNV-1" vertex="1">
          <mxGeometry x="370" y="-720" width="60" height="30" as="geometry" />
        </mxCell>
        <mxCell id="SxVaqr2VcNqw4Pzim6or-39" value="if pilihan == 1" style="strokeWidth=2;html=1;shape=mxgraph.flowchart.decision;whiteSpace=wrap;" parent="WIyWlLk6GJQsqaUBKTNV-1" vertex="1">
          <mxGeometry x="210" y="-740" width="100" height="100" as="geometry" />
        </mxCell>
        <mxCell id="DZPZUwkXxejj2CQEaa6J-49" value="" style="endArrow=none;html=1;rounded=0;fontSize=12;startSize=8;endSize=8;curved=1;" parent="WIyWlLk6GJQsqaUBKTNV-1" edge="1">
          <mxGeometry width="50" height="50" relative="1" as="geometry">
            <mxPoint x="60" y="-690" as="sourcePoint" />
            <mxPoint x="210" y="-690" as="targetPoint" />
          </mxGeometry>
        </mxCell>
        <mxCell id="DZPZUwkXxejj2CQEaa6J-51" value="false" style="text;html=1;align=center;verticalAlign=middle;whiteSpace=wrap;rounded=0;fontSize=16;" parent="WIyWlLk6GJQsqaUBKTNV-1" vertex="1">
          <mxGeometry x="110" y="-720" width="60" height="30" as="geometry" />
        </mxCell>
        <mxCell id="DZPZUwkXxejj2CQEaa6J-53" value="true" style="text;html=1;align=center;verticalAlign=middle;whiteSpace=wrap;rounded=0;fontSize=16;" parent="WIyWlLk6GJQsqaUBKTNV-1" vertex="1">
          <mxGeometry x="120" y="-582" width="60" height="30" as="geometry" />
        </mxCell>
        <mxCell id="DZPZUwkXxejj2CQEaa6J-54" value="false" style="text;html=1;align=center;verticalAlign=middle;whiteSpace=wrap;rounded=0;fontSize=16;" parent="WIyWlLk6GJQsqaUBKTNV-1" vertex="1">
          <mxGeometry x="-100" y="-582" width="60" height="30" as="geometry" />
        </mxCell>
        <mxCell id="DZPZUwkXxejj2CQEaa6J-55" value="true" style="text;html=1;align=center;verticalAlign=middle;whiteSpace=wrap;rounded=0;fontSize=16;" parent="WIyWlLk6GJQsqaUBKTNV-1" vertex="1">
          <mxGeometry x="-130" y="-455" width="60" height="30" as="geometry" />
        </mxCell>
        <mxCell id="DZPZUwkXxejj2CQEaa6J-56" value="false" style="text;html=1;align=center;verticalAlign=middle;whiteSpace=wrap;rounded=0;fontSize=16;" parent="WIyWlLk6GJQsqaUBKTNV-1" vertex="1">
          <mxGeometry x="-310" y="-455" width="60" height="30" as="geometry" />
        </mxCell>
        <mxCell id="DZPZUwkXxejj2CQEaa6J-57" value="true" style="text;html=1;align=center;verticalAlign=middle;whiteSpace=wrap;rounded=0;fontSize=16;" parent="WIyWlLk6GJQsqaUBKTNV-1" vertex="1">
          <mxGeometry x="-640" y="-790" width="60" height="30" as="geometry" />
        </mxCell>
        <mxCell id="DZPZUwkXxejj2CQEaa6J-58" value="false" style="text;html=1;align=center;verticalAlign=middle;whiteSpace=wrap;rounded=0;fontSize=16;" parent="WIyWlLk6GJQsqaUBKTNV-1" vertex="1">
          <mxGeometry x="-887" y="-790" width="60" height="30" as="geometry" />
        </mxCell>
        <mxCell id="DZPZUwkXxejj2CQEaa6J-59" value="" style="endArrow=none;html=1;rounded=0;fontSize=12;startSize=8;endSize=8;curved=1;" parent="WIyWlLk6GJQsqaUBKTNV-1" edge="1">
          <mxGeometry width="50" height="50" relative="1" as="geometry">
            <mxPoint x="-750" y="-270" as="sourcePoint" />
            <mxPoint x="-570" y="-270" as="targetPoint" />
          </mxGeometry>
        </mxCell>
        <mxCell id="DZPZUwkXxejj2CQEaa6J-60" value="" style="endArrow=classic;html=1;rounded=0;fontSize=12;startSize=8;endSize=8;curved=1;entryX=0.418;entryY=0.001;entryDx=0;entryDy=0;entryPerimeter=0;" parent="WIyWlLk6GJQsqaUBKTNV-1" target="DZPZUwkXxejj2CQEaa6J-31" edge="1">
          <mxGeometry width="50" height="50" relative="1" as="geometry">
            <mxPoint x="-570" y="-270" as="sourcePoint" />
            <mxPoint x="-520" y="-320" as="targetPoint" />
          </mxGeometry>
        </mxCell>
        <mxCell id="DZPZUwkXxejj2CQEaa6J-61" value="" style="endArrow=none;html=1;rounded=0;fontSize=12;startSize=8;endSize=8;curved=1;" parent="WIyWlLk6GJQsqaUBKTNV-1" edge="1">
          <mxGeometry width="50" height="50" relative="1" as="geometry">
            <mxPoint x="-1060" y="-270" as="sourcePoint" />
            <mxPoint x="-900" y="-270" as="targetPoint" />
          </mxGeometry>
        </mxCell>
        <mxCell id="DZPZUwkXxejj2CQEaa6J-62" value="" style="endArrow=classic;html=1;rounded=0;fontSize=12;startSize=8;endSize=8;curved=1;" parent="WIyWlLk6GJQsqaUBKTNV-1" target="DZPZUwkXxejj2CQEaa6J-63" edge="1">
          <mxGeometry width="50" height="50" relative="1" as="geometry">
            <mxPoint x="-1060" y="-270" as="sourcePoint" />
            <mxPoint x="-1060" y="-190" as="targetPoint" />
          </mxGeometry>
        </mxCell>
        <mxCell id="DZPZUwkXxejj2CQEaa6J-63" value="print(&quot;tidak ada event&lt;div&gt;&amp;nbsp;yang tersedia&quot;)&lt;/div&gt;" style="shape=parallelogram;html=1;strokeWidth=2;perimeter=parallelogramPerimeter;whiteSpace=wrap;rounded=1;arcSize=12;size=0.23;" parent="WIyWlLk6GJQsqaUBKTNV-1" vertex="1">
          <mxGeometry x="-1150" y="-190" width="180" height="60" as="geometry" />
        </mxCell>
        <mxCell id="DZPZUwkXxejj2CQEaa6J-64" value="" style="endArrow=none;html=1;rounded=0;fontSize=12;startSize=8;endSize=8;curved=1;" parent="WIyWlLk6GJQsqaUBKTNV-1" edge="1">
          <mxGeometry width="50" height="50" relative="1" as="geometry">
            <mxPoint x="-1360" y="-640" as="sourcePoint" />
            <mxPoint x="-1010" y="-637" as="targetPoint" />
          </mxGeometry>
        </mxCell>
        <mxCell id="DZPZUwkXxejj2CQEaa6J-67" value="if pilihan ==3" style="strokeWidth=2;html=1;shape=mxgraph.flowchart.decision;whiteSpace=wrap;" parent="WIyWlLk6GJQsqaUBKTNV-1" vertex="1">
          <mxGeometry x="-1410" y="-552" width="100" height="90" as="geometry" />
        </mxCell>
        <mxCell id="DZPZUwkXxejj2CQEaa6J-68" value="" style="endArrow=classic;html=1;rounded=0;fontSize=12;startSize=8;endSize=8;curved=1;entryX=0.5;entryY=0;entryDx=0;entryDy=0;entryPerimeter=0;" parent="WIyWlLk6GJQsqaUBKTNV-1" target="DZPZUwkXxejj2CQEaa6J-67" edge="1">
          <mxGeometry width="50" height="50" relative="1" as="geometry">
            <mxPoint x="-1360" y="-640" as="sourcePoint" />
            <mxPoint x="-1310" y="-690" as="targetPoint" />
          </mxGeometry>
        </mxCell>
        <mxCell id="DZPZUwkXxejj2CQEaa6J-69" value="" style="endArrow=none;html=1;rounded=0;fontSize=12;startSize=8;endSize=8;curved=1;" parent="WIyWlLk6GJQsqaUBKTNV-1" edge="1">
          <mxGeometry width="50" height="50" relative="1" as="geometry">
            <mxPoint x="-1310" y="-510" as="sourcePoint" />
            <mxPoint x="-1200" y="-510" as="targetPoint" />
          </mxGeometry>
        </mxCell>
        <mxCell id="DZPZUwkXxejj2CQEaa6J-70" value="" style="endArrow=classic;html=1;rounded=0;fontSize=12;startSize=8;endSize=8;curved=1;" parent="WIyWlLk6GJQsqaUBKTNV-1" target="DZPZUwkXxejj2CQEaa6J-71" edge="1">
          <mxGeometry width="50" height="50" relative="1" as="geometry">
            <mxPoint x="-1200" y="-510" as="sourcePoint" />
            <mxPoint x="-1230" y="-430" as="targetPoint" />
          </mxGeometry>
        </mxCell>
        <mxCell id="DZPZUwkXxejj2CQEaa6J-74" value="" style="edgeStyle=none;curved=1;rounded=0;orthogonalLoop=1;jettySize=auto;html=1;fontSize=12;startSize=8;endSize=8;" parent="WIyWlLk6GJQsqaUBKTNV-1" source="DZPZUwkXxejj2CQEaa6J-71" target="DZPZUwkXxejj2CQEaa6J-73" edge="1">
          <mxGeometry relative="1" as="geometry" />
        </mxCell>
        <mxCell id="DZPZUwkXxejj2CQEaa6J-71" value="nama_event = input(&quot;Masukkan&lt;div&gt;&amp;nbsp;nama even&lt;div&gt;yg ingin diperbarui&quot;)&lt;/div&gt;&lt;/div&gt;" style="shape=parallelogram;html=1;strokeWidth=2;perimeter=parallelogramPerimeter;whiteSpace=wrap;rounded=1;arcSize=12;size=0.23;" parent="WIyWlLk6GJQsqaUBKTNV-1" vertex="1">
          <mxGeometry x="-1340" y="-460" width="280" height="80" as="geometry" />
        </mxCell>
        <mxCell id="DZPZUwkXxejj2CQEaa6J-76" value="" style="edgeStyle=none;curved=1;rounded=0;orthogonalLoop=1;jettySize=auto;html=1;fontSize=12;startSize=8;endSize=8;" parent="WIyWlLk6GJQsqaUBKTNV-1" source="DZPZUwkXxejj2CQEaa6J-73" target="DZPZUwkXxejj2CQEaa6J-75" edge="1">
          <mxGeometry relative="1" as="geometry" />
        </mxCell>
        <mxCell id="DZPZUwkXxejj2CQEaa6J-73" value="print(&quot;Perbarui event&quot;)" style="whiteSpace=wrap;html=1;strokeWidth=2;rounded=1;arcSize=12;" parent="WIyWlLk6GJQsqaUBKTNV-1" vertex="1">
          <mxGeometry x="-1260" y="-320" width="120" height="60" as="geometry" />
        </mxCell>
        <mxCell id="DZPZUwkXxejj2CQEaa6J-78" value="" style="edgeStyle=none;curved=1;rounded=0;orthogonalLoop=1;jettySize=auto;html=1;fontSize=12;startSize=8;endSize=8;" parent="WIyWlLk6GJQsqaUBKTNV-1" source="DZPZUwkXxejj2CQEaa6J-75" target="DZPZUwkXxejj2CQEaa6J-77" edge="1">
          <mxGeometry relative="1" as="geometry" />
        </mxCell>
        <mxCell id="DZPZUwkXxejj2CQEaa6J-75" value="event_ditemukan=false" style="whiteSpace=wrap;html=1;strokeWidth=2;rounded=1;arcSize=12;" parent="WIyWlLk6GJQsqaUBKTNV-1" vertex="1">
          <mxGeometry x="-1260" y="-220" width="120" height="60" as="geometry" />
        </mxCell>
        <mxCell id="DZPZUwkXxejj2CQEaa6J-77" value="if event[0] == event_ditemukan[0] and event[1] == nama_event" style="rhombus;whiteSpace=wrap;html=1;strokeWidth=2;rounded=1;arcSize=12;" parent="WIyWlLk6GJQsqaUBKTNV-1" vertex="1">
          <mxGeometry x="-1320" y="-110" width="240" height="120" as="geometry" />
        </mxCell>
        <mxCell id="DZPZUwkXxejj2CQEaa6J-79" value="" style="endArrow=none;html=1;rounded=0;fontSize=12;startSize=8;endSize=8;curved=1;" parent="WIyWlLk6GJQsqaUBKTNV-1" edge="1">
          <mxGeometry width="50" height="50" relative="1" as="geometry">
            <mxPoint x="-1085" y="-50" as="sourcePoint" />
            <mxPoint x="-860" y="-50" as="targetPoint" />
          </mxGeometry>
        </mxCell>
        <mxCell id="DZPZUwkXxejj2CQEaa6J-80" value="" style="endArrow=classic;html=1;rounded=0;fontSize=12;startSize=8;endSize=8;curved=1;" parent="WIyWlLk6GJQsqaUBKTNV-1" edge="1">
          <mxGeometry width="50" height="50" relative="1" as="geometry">
            <mxPoint x="-860" y="-50" as="sourcePoint" />
            <mxPoint x="-860" y="40" as="targetPoint" />
          </mxGeometry>
        </mxCell>
        <mxCell id="DZPZUwkXxejj2CQEaa6J-87" value="" style="edgeStyle=none;curved=1;rounded=0;orthogonalLoop=1;jettySize=auto;html=1;fontSize=12;startSize=8;endSize=8;" parent="WIyWlLk6GJQsqaUBKTNV-1" source="DZPZUwkXxejj2CQEaa6J-81" target="DZPZUwkXxejj2CQEaa6J-86" edge="1">
          <mxGeometry relative="1" as="geometry" />
        </mxCell>
        <mxCell id="DZPZUwkXxejj2CQEaa6J-81" value="tanggal_baru=input(&quot;Masukkan tanggal baru&quot;)&lt;div&gt;waktu_baru=input(&quot;Masukkan waktu baru&quot;)&lt;/div&gt;&lt;div&gt;deskripsi_baru=input(&quot;Masukkan deskripsi baru&quot;)&lt;/div&gt;" style="shape=parallelogram;html=1;strokeWidth=2;perimeter=parallelogramPerimeter;whiteSpace=wrap;rounded=1;arcSize=12;size=0.23;" parent="WIyWlLk6GJQsqaUBKTNV-1" vertex="1">
          <mxGeometry x="-1040" y="40" width="370" height="80" as="geometry" />
        </mxCell>
        <mxCell id="DZPZUwkXxejj2CQEaa6J-86" value="print(&quot;Event &#39;{nama_event}&#39; berhasil diperbarui&quot;)" style="shape=parallelogram;perimeter=parallelogramPerimeter;whiteSpace=wrap;html=1;fixedSize=1;strokeWidth=2;rounded=1;arcSize=12;" parent="WIyWlLk6GJQsqaUBKTNV-1" vertex="1">
          <mxGeometry x="-950" y="180" width="190" height="60" as="geometry" />
        </mxCell>
        <mxCell id="DZPZUwkXxejj2CQEaa6J-88" value="" style="endArrow=none;html=1;rounded=0;fontSize=12;startSize=8;endSize=8;curved=1;" parent="WIyWlLk6GJQsqaUBKTNV-1" edge="1">
          <mxGeometry width="50" height="50" relative="1" as="geometry">
            <mxPoint x="-1470" y="-50" as="sourcePoint" />
            <mxPoint x="-1320" y="-50" as="targetPoint" />
          </mxGeometry>
        </mxCell>
        <mxCell id="DZPZUwkXxejj2CQEaa6J-89" value="" style="endArrow=classic;html=1;rounded=0;fontSize=12;startSize=8;endSize=8;curved=1;" parent="WIyWlLk6GJQsqaUBKTNV-1" target="DZPZUwkXxejj2CQEaa6J-90" edge="1">
          <mxGeometry width="50" height="50" relative="1" as="geometry">
            <mxPoint x="-1470" y="-50" as="sourcePoint" />
            <mxPoint x="-1470" y="40" as="targetPoint" />
          </mxGeometry>
        </mxCell>
        <mxCell id="DZPZUwkXxejj2CQEaa6J-90" value="print(&quot;Event dengan nama&amp;nbsp;&lt;div&gt;&#39;{nama_event}&#39; tidak ditemukan&quot;)&lt;/div&gt;" style="shape=parallelogram;html=1;strokeWidth=2;perimeter=parallelogramPerimeter;whiteSpace=wrap;rounded=1;arcSize=12;size=0.23;" parent="WIyWlLk6GJQsqaUBKTNV-1" vertex="1">
          <mxGeometry x="-1600" y="10" width="260" height="70" as="geometry" />
        </mxCell>
        <mxCell id="DZPZUwkXxejj2CQEaa6J-91" value="" style="endArrow=none;html=1;rounded=0;fontSize=12;startSize=8;endSize=8;curved=1;" parent="WIyWlLk6GJQsqaUBKTNV-1" edge="1">
          <mxGeometry width="50" height="50" relative="1" as="geometry">
            <mxPoint x="-2160" y="-510" as="sourcePoint" />
            <mxPoint x="-1410" y="-510" as="targetPoint" />
          </mxGeometry>
        </mxCell>
        <mxCell id="DZPZUwkXxejj2CQEaa6J-93" value="if pilihan ==4" style="strokeWidth=2;html=1;shape=mxgraph.flowchart.decision;whiteSpace=wrap;" parent="WIyWlLk6GJQsqaUBKTNV-1" vertex="1">
          <mxGeometry x="-2210" y="-410" width="100" height="90" as="geometry" />
        </mxCell>
        <mxCell id="DZPZUwkXxejj2CQEaa6J-99" value="" style="edgeStyle=none;curved=1;rounded=0;orthogonalLoop=1;jettySize=auto;html=1;fontSize=12;startSize=8;endSize=8;" parent="WIyWlLk6GJQsqaUBKTNV-1" source="DZPZUwkXxejj2CQEaa6J-96" target="DZPZUwkXxejj2CQEaa6J-98" edge="1">
          <mxGeometry relative="1" as="geometry" />
        </mxCell>
        <mxCell id="DZPZUwkXxejj2CQEaa6J-96" value="nama_event= input(&quot;Masukkan&lt;div&gt;&amp;nbsp;nama event yang ingin dihapus&lt;/div&gt;" style="shape=parallelogram;html=1;strokeWidth=2;perimeter=parallelogramPerimeter;whiteSpace=wrap;rounded=1;arcSize=12;size=0.23;" parent="WIyWlLk6GJQsqaUBKTNV-1" vertex="1">
          <mxGeometry x="-2110" y="-310" width="240" height="60" as="geometry" />
        </mxCell>
        <mxCell id="DZPZUwkXxejj2CQEaa6J-106" value="" style="edgeStyle=none;curved=1;rounded=0;orthogonalLoop=1;jettySize=auto;html=1;fontSize=12;startSize=8;endSize=8;" parent="WIyWlLk6GJQsqaUBKTNV-1" source="DZPZUwkXxejj2CQEaa6J-98" target="DZPZUwkXxejj2CQEaa6J-105" edge="1">
          <mxGeometry relative="1" as="geometry" />
        </mxCell>
        <mxCell id="DZPZUwkXxejj2CQEaa6J-98" value="print(&quot;Hapus event&quot;)" style="shape=parallelogram;perimeter=parallelogramPerimeter;whiteSpace=wrap;html=1;fixedSize=1;strokeWidth=2;rounded=1;arcSize=12;" parent="WIyWlLk6GJQsqaUBKTNV-1" vertex="1">
          <mxGeometry x="-2060" y="-150" width="140" height="60" as="geometry" />
        </mxCell>
        <mxCell id="DZPZUwkXxejj2CQEaa6J-101" value="" style="endArrow=none;html=1;rounded=0;fontSize=12;startSize=8;endSize=8;curved=1;" parent="WIyWlLk6GJQsqaUBKTNV-1" edge="1">
          <mxGeometry width="50" height="50" relative="1" as="geometry">
            <mxPoint x="-2118" y="-360" as="sourcePoint" />
            <mxPoint x="-1990" y="-360" as="targetPoint" />
          </mxGeometry>
        </mxCell>
        <mxCell id="DZPZUwkXxejj2CQEaa6J-102" value="" style="endArrow=classic;html=1;rounded=0;fontSize=12;startSize=8;endSize=8;curved=1;" parent="WIyWlLk6GJQsqaUBKTNV-1" target="DZPZUwkXxejj2CQEaa6J-96" edge="1">
          <mxGeometry width="50" height="50" relative="1" as="geometry">
            <mxPoint x="-1990" y="-360" as="sourcePoint" />
            <mxPoint x="-1940" y="-410" as="targetPoint" />
          </mxGeometry>
        </mxCell>
        <mxCell id="DZPZUwkXxejj2CQEaa6J-103" value="" style="endArrow=classic;html=1;rounded=0;fontSize=12;startSize=8;endSize=8;curved=1;entryX=0.5;entryY=0;entryDx=0;entryDy=0;entryPerimeter=0;" parent="WIyWlLk6GJQsqaUBKTNV-1" target="DZPZUwkXxejj2CQEaa6J-93" edge="1">
          <mxGeometry width="50" height="50" relative="1" as="geometry">
            <mxPoint x="-2160" y="-510" as="sourcePoint" />
            <mxPoint x="-2110" y="-560" as="targetPoint" />
          </mxGeometry>
        </mxCell>
        <mxCell id="DZPZUwkXxejj2CQEaa6J-105" value="if event [0] == eveny_ditemukan[0] and event[1] == nama_event" style="rhombus;whiteSpace=wrap;html=1;strokeWidth=2;rounded=1;arcSize=12;" parent="WIyWlLk6GJQsqaUBKTNV-1" vertex="1">
          <mxGeometry x="-2100" y="50" width="230" height="130" as="geometry" />
        </mxCell>
        <mxCell id="DZPZUwkXxejj2CQEaa6J-107" value="" style="endArrow=none;html=1;rounded=0;fontSize=12;startSize=8;endSize=8;curved=1;" parent="WIyWlLk6GJQsqaUBKTNV-1" edge="1">
          <mxGeometry width="50" height="50" relative="1" as="geometry">
            <mxPoint x="-1880" y="120" as="sourcePoint" />
            <mxPoint x="-1730" y="120.45" as="targetPoint" />
          </mxGeometry>
        </mxCell>
        <mxCell id="DZPZUwkXxejj2CQEaa6J-109" value="" style="endArrow=classic;html=1;rounded=0;fontSize=12;startSize=8;endSize=8;curved=1;" parent="WIyWlLk6GJQsqaUBKTNV-1" target="DZPZUwkXxejj2CQEaa6J-110" edge="1">
          <mxGeometry width="50" height="50" relative="1" as="geometry">
            <mxPoint x="-1730" y="120" as="sourcePoint" />
            <mxPoint x="-1730" y="200" as="targetPoint" />
          </mxGeometry>
        </mxCell>
        <mxCell id="DZPZUwkXxejj2CQEaa6J-110" value="print(&quot;Event dengan nama&amp;nbsp;&lt;div&gt;&lt;span style=&quot;background-color: initial;&quot;&gt;&#39;{nama_event}&#39; berhasil dihapus&quot;)&lt;/span&gt;&lt;/div&gt;" style="shape=parallelogram;html=1;strokeWidth=2;perimeter=parallelogramPerimeter;whiteSpace=wrap;rounded=1;arcSize=12;size=0.23;" parent="WIyWlLk6GJQsqaUBKTNV-1" vertex="1">
          <mxGeometry x="-1860" y="190" width="260" height="60" as="geometry" />
        </mxCell>
        <mxCell id="DZPZUwkXxejj2CQEaa6J-111" value="" style="endArrow=none;html=1;rounded=0;fontSize=12;startSize=8;endSize=8;curved=1;" parent="WIyWlLk6GJQsqaUBKTNV-1" edge="1">
          <mxGeometry width="50" height="50" relative="1" as="geometry">
            <mxPoint x="-2240" y="120" as="sourcePoint" />
            <mxPoint x="-2090" y="120" as="targetPoint" />
          </mxGeometry>
        </mxCell>
        <mxCell id="DZPZUwkXxejj2CQEaa6J-112" value="" style="endArrow=classic;html=1;rounded=0;fontSize=12;startSize=8;endSize=8;curved=1;" parent="WIyWlLk6GJQsqaUBKTNV-1" target="DZPZUwkXxejj2CQEaa6J-113" edge="1">
          <mxGeometry width="50" height="50" relative="1" as="geometry">
            <mxPoint x="-2240" y="120" as="sourcePoint" />
            <mxPoint x="-2240" y="200" as="targetPoint" />
          </mxGeometry>
        </mxCell>
        <mxCell id="DZPZUwkXxejj2CQEaa6J-113" value="print(&quot;Event dengan nama&amp;nbsp;&lt;div&gt;&#39;{nama_event}&#39; tidak ditemukan&lt;/div&gt;" style="shape=parallelogram;html=1;strokeWidth=2;perimeter=parallelogramPerimeter;whiteSpace=wrap;rounded=1;arcSize=12;size=0.23;" parent="WIyWlLk6GJQsqaUBKTNV-1" vertex="1">
          <mxGeometry x="-2360" y="190" width="240" height="60" as="geometry" />
        </mxCell>
        <mxCell id="DZPZUwkXxejj2CQEaa6J-114" value="" style="endArrow=none;html=1;rounded=0;fontSize=12;startSize=8;endSize=8;curved=1;" parent="WIyWlLk6GJQsqaUBKTNV-1" edge="1">
          <mxGeometry width="50" height="50" relative="1" as="geometry">
            <mxPoint x="-2640" y="-360" as="sourcePoint" />
            <mxPoint x="-2210" y="-360" as="targetPoint" />
          </mxGeometry>
        </mxCell>
        <mxCell id="DZPZUwkXxejj2CQEaa6J-116" value="if pilihan ==5" style="strokeWidth=2;html=1;shape=mxgraph.flowchart.decision;whiteSpace=wrap;" parent="WIyWlLk6GJQsqaUBKTNV-1" vertex="1">
          <mxGeometry x="-2690" y="-260" width="100" height="100" as="geometry" />
        </mxCell>
        <mxCell id="DZPZUwkXxejj2CQEaa6J-117" value="" style="endArrow=classic;html=1;rounded=0;fontSize=12;startSize=8;endSize=8;curved=1;entryX=0.5;entryY=0;entryDx=0;entryDy=0;entryPerimeter=0;" parent="WIyWlLk6GJQsqaUBKTNV-1" edge="1">
          <mxGeometry width="50" height="50" relative="1" as="geometry">
            <mxPoint x="-2640" y="-360" as="sourcePoint" />
            <mxPoint x="-2640" y="-260" as="targetPoint" />
          </mxGeometry>
        </mxCell>
        <mxCell id="DZPZUwkXxejj2CQEaa6J-118" value="" style="endArrow=none;html=1;rounded=0;fontSize=12;startSize=8;endSize=8;curved=1;" parent="WIyWlLk6GJQsqaUBKTNV-1" edge="1">
          <mxGeometry width="50" height="50" relative="1" as="geometry">
            <mxPoint x="-2590" y="-210" as="sourcePoint" />
            <mxPoint x="-2470" y="-210" as="targetPoint" />
          </mxGeometry>
        </mxCell>
        <mxCell id="DZPZUwkXxejj2CQEaa6J-119" value="" style="endArrow=classic;html=1;rounded=0;fontSize=12;startSize=8;endSize=8;curved=1;" parent="WIyWlLk6GJQsqaUBKTNV-1" edge="1">
          <mxGeometry width="50" height="50" relative="1" as="geometry">
            <mxPoint x="-2470" y="-210" as="sourcePoint" />
            <mxPoint x="-2470" y="-160" as="targetPoint" />
          </mxGeometry>
        </mxCell>
        <mxCell id="DZPZUwkXxejj2CQEaa6J-120" value="print(&quot;Logout berhasil&quot;)" style="shape=parallelogram;html=1;strokeWidth=2;perimeter=parallelogramPerimeter;whiteSpace=wrap;rounded=1;arcSize=12;size=0.23;" parent="WIyWlLk6GJQsqaUBKTNV-1" vertex="1">
          <mxGeometry x="-2520" y="-160" width="100" height="60" as="geometry" />
        </mxCell>
        <mxCell id="DZPZUwkXxejj2CQEaa6J-121" value="" style="endArrow=none;html=1;rounded=0;fontSize=12;startSize=8;endSize=8;curved=1;" parent="WIyWlLk6GJQsqaUBKTNV-1" edge="1">
          <mxGeometry width="50" height="50" relative="1" as="geometry">
            <mxPoint x="-2870" y="-210" as="sourcePoint" />
            <mxPoint x="-2690" y="-210" as="targetPoint" />
          </mxGeometry>
        </mxCell>
        <mxCell id="DZPZUwkXxejj2CQEaa6J-122" value="" style="endArrow=classic;html=1;rounded=0;fontSize=12;startSize=8;endSize=8;curved=1;" parent="WIyWlLk6GJQsqaUBKTNV-1" edge="1">
          <mxGeometry width="50" height="50" relative="1" as="geometry">
            <mxPoint x="-2870" y="-210" as="sourcePoint" />
            <mxPoint x="-2870" y="-160" as="targetPoint" />
          </mxGeometry>
        </mxCell>
        <mxCell id="DZPZUwkXxejj2CQEaa6J-123" value="print(&quot;Pilihan tidak valid&quot;)" style="shape=parallelogram;html=1;strokeWidth=2;perimeter=parallelogramPerimeter;whiteSpace=wrap;rounded=1;arcSize=12;size=0.23;" parent="WIyWlLk6GJQsqaUBKTNV-1" vertex="1">
          <mxGeometry x="-2960" y="-160" width="180" height="60" as="geometry" />
        </mxCell>
        <mxCell id="DZPZUwkXxejj2CQEaa6J-125" value="false" style="text;html=1;align=center;verticalAlign=middle;whiteSpace=wrap;rounded=0;fontSize=16;" parent="WIyWlLk6GJQsqaUBKTNV-1" vertex="1">
          <mxGeometry x="-1000" y="-300" width="60" height="30" as="geometry" />
        </mxCell>
        <mxCell id="DZPZUwkXxejj2CQEaa6J-127" value="true" style="text;html=1;align=center;verticalAlign=middle;whiteSpace=wrap;rounded=0;fontSize=16;" parent="WIyWlLk6GJQsqaUBKTNV-1" vertex="1">
          <mxGeometry x="-900" y="-670" width="60" height="30" as="geometry" />
        </mxCell>
        <mxCell id="DZPZUwkXxejj2CQEaa6J-128" value="false" style="text;html=1;align=center;verticalAlign=middle;whiteSpace=wrap;rounded=0;fontSize=16;" parent="WIyWlLk6GJQsqaUBKTNV-1" vertex="1">
          <mxGeometry x="-1210" y="-670" width="60" height="30" as="geometry" />
        </mxCell>
        <mxCell id="DZPZUwkXxejj2CQEaa6J-129" value="true" style="text;html=1;align=center;verticalAlign=middle;whiteSpace=wrap;rounded=0;fontSize=16;" parent="WIyWlLk6GJQsqaUBKTNV-1" vertex="1">
          <mxGeometry x="-990" y="-80" width="60" height="30" as="geometry" />
        </mxCell>
        <mxCell id="DZPZUwkXxejj2CQEaa6J-131" value="false" style="text;html=1;align=center;verticalAlign=middle;whiteSpace=wrap;rounded=0;fontSize=16;" parent="WIyWlLk6GJQsqaUBKTNV-1" vertex="1">
          <mxGeometry x="-1410" y="-80" width="60" height="30" as="geometry" />
        </mxCell>
        <mxCell id="DZPZUwkXxejj2CQEaa6J-132" value="true" style="text;html=1;align=center;verticalAlign=middle;whiteSpace=wrap;rounded=0;fontSize=16;" parent="WIyWlLk6GJQsqaUBKTNV-1" vertex="1">
          <mxGeometry x="-1290" y="-540" width="60" height="30" as="geometry" />
        </mxCell>
        <mxCell id="DZPZUwkXxejj2CQEaa6J-133" value="false" style="text;html=1;align=center;verticalAlign=middle;whiteSpace=wrap;rounded=0;fontSize=16;" parent="WIyWlLk6GJQsqaUBKTNV-1" vertex="1">
          <mxGeometry x="-1714" y="-540" width="60" height="30" as="geometry" />
        </mxCell>
        <mxCell id="DZPZUwkXxejj2CQEaa6J-134" value="true" style="text;html=1;align=center;verticalAlign=middle;whiteSpace=wrap;rounded=0;fontSize=16;" parent="WIyWlLk6GJQsqaUBKTNV-1" vertex="1">
          <mxGeometry x="-2090" y="-390" width="60" height="30" as="geometry" />
        </mxCell>
        <mxCell id="DZPZUwkXxejj2CQEaa6J-135" value="false" style="text;html=1;align=center;verticalAlign=middle;whiteSpace=wrap;rounded=0;fontSize=16;" parent="WIyWlLk6GJQsqaUBKTNV-1" vertex="1">
          <mxGeometry x="-2450" y="-390" width="60" height="30" as="geometry" />
        </mxCell>
        <mxCell id="DZPZUwkXxejj2CQEaa6J-136" value="true" style="text;html=1;align=center;verticalAlign=middle;whiteSpace=wrap;rounded=0;fontSize=16;" parent="WIyWlLk6GJQsqaUBKTNV-1" vertex="1">
          <mxGeometry x="-2570" y="-240" width="60" height="30" as="geometry" />
        </mxCell>
        <mxCell id="DZPZUwkXxejj2CQEaa6J-137" value="false" style="text;html=1;align=center;verticalAlign=middle;whiteSpace=wrap;rounded=0;fontSize=16;" parent="WIyWlLk6GJQsqaUBKTNV-1" vertex="1">
          <mxGeometry x="-2810" y="-240" width="60" height="30" as="geometry" />
        </mxCell>
        <mxCell id="DZPZUwkXxejj2CQEaa6J-138" value="true" style="text;html=1;align=center;verticalAlign=middle;whiteSpace=wrap;rounded=0;fontSize=16;" parent="WIyWlLk6GJQsqaUBKTNV-1" vertex="1">
          <mxGeometry x="-1830" y="90" width="60" height="30" as="geometry" />
        </mxCell>
        <mxCell id="DZPZUwkXxejj2CQEaa6J-139" value="false" style="text;html=1;align=center;verticalAlign=middle;whiteSpace=wrap;rounded=0;fontSize=16;" parent="WIyWlLk6GJQsqaUBKTNV-1" vertex="1">
          <mxGeometry x="-2190" y="90" width="60" height="30" as="geometry" />
        </mxCell>
        <mxCell id="DZPZUwkXxejj2CQEaa6J-142" value="" style="endArrow=classic;html=1;rounded=0;fontSize=12;startSize=8;endSize=8;curved=1;" parent="WIyWlLk6GJQsqaUBKTNV-1" target="DZPZUwkXxejj2CQEaa6J-143" edge="1">
          <mxGeometry width="50" height="50" relative="1" as="geometry">
            <mxPoint x="-3080" y="-1680" as="sourcePoint" />
            <mxPoint x="-3080" y="-1530" as="targetPoint" />
          </mxGeometry>
        </mxCell>
        <mxCell id="DZPZUwkXxejj2CQEaa6J-143" value="if pilihan ==3" style="strokeWidth=2;html=1;shape=mxgraph.flowchart.decision;whiteSpace=wrap;" parent="WIyWlLk6GJQsqaUBKTNV-1" vertex="1">
          <mxGeometry x="-3130" y="-1580" width="100" height="100" as="geometry" />
        </mxCell>
        <mxCell id="DZPZUwkXxejj2CQEaa6J-144" value="" style="endArrow=none;html=1;rounded=0;fontSize=12;startSize=8;endSize=8;curved=1;" parent="WIyWlLk6GJQsqaUBKTNV-1" edge="1">
          <mxGeometry width="50" height="50" relative="1" as="geometry">
            <mxPoint x="-3030" y="-1530" as="sourcePoint" />
            <mxPoint x="-2920" y="-1530" as="targetPoint" />
          </mxGeometry>
        </mxCell>
        <mxCell id="DZPZUwkXxejj2CQEaa6J-145" value="" style="endArrow=classic;html=1;rounded=0;fontSize=12;startSize=8;endSize=8;curved=1;" parent="WIyWlLk6GJQsqaUBKTNV-1" target="DZPZUwkXxejj2CQEaa6J-146" edge="1">
          <mxGeometry width="50" height="50" relative="1" as="geometry">
            <mxPoint x="-2919" y="-1530" as="sourcePoint" />
            <mxPoint x="-2919" y="-1440" as="targetPoint" />
          </mxGeometry>
        </mxCell>
        <mxCell id="DZPZUwkXxejj2CQEaa6J-146" value="print(&quot;Terima kasih telah&lt;div&gt;&amp;nbsp;menggunakan sistem&quot;)&lt;/div&gt;" style="shape=parallelogram;html=1;strokeWidth=2;perimeter=parallelogramPerimeter;whiteSpace=wrap;rounded=1;arcSize=12;size=0.23;" parent="WIyWlLk6GJQsqaUBKTNV-1" vertex="1">
          <mxGeometry x="-3040" y="-1470" width="240" height="60" as="geometry" />
        </mxCell>
        <mxCell id="DZPZUwkXxejj2CQEaa6J-147" style="edgeStyle=none;curved=1;rounded=0;orthogonalLoop=1;jettySize=auto;html=1;entryX=0;entryY=0.5;entryDx=0;entryDy=0;fontSize=12;startSize=8;endSize=8;" parent="WIyWlLk6GJQsqaUBKTNV-1" source="DZPZUwkXxejj2CQEaa6J-146" target="DZPZUwkXxejj2CQEaa6J-146" edge="1">
          <mxGeometry relative="1" as="geometry" />
        </mxCell>
        <mxCell id="DZPZUwkXxejj2CQEaa6J-148" value="" style="endArrow=none;html=1;rounded=0;fontSize=12;startSize=8;endSize=8;curved=1;" parent="WIyWlLk6GJQsqaUBKTNV-1" edge="1">
          <mxGeometry width="50" height="50" relative="1" as="geometry">
            <mxPoint x="-3240" y="-1530" as="sourcePoint" />
            <mxPoint x="-3130" y="-1530" as="targetPoint" />
          </mxGeometry>
        </mxCell>
        <mxCell id="DZPZUwkXxejj2CQEaa6J-149" value="" style="endArrow=classic;html=1;rounded=0;fontSize=12;startSize=8;endSize=8;curved=1;" parent="WIyWlLk6GJQsqaUBKTNV-1" target="DZPZUwkXxejj2CQEaa6J-150" edge="1">
          <mxGeometry width="50" height="50" relative="1" as="geometry">
            <mxPoint x="-3240" y="-1530" as="sourcePoint" />
            <mxPoint x="-3240" y="-1450" as="targetPoint" />
          </mxGeometry>
        </mxCell>
        <mxCell id="DZPZUwkXxejj2CQEaa6J-150" value="print(&quot;Pilihan tidak valid&quot;)" style="shape=parallelogram;html=1;strokeWidth=2;perimeter=parallelogramPerimeter;whiteSpace=wrap;rounded=1;arcSize=12;size=0.23;" parent="WIyWlLk6GJQsqaUBKTNV-1" vertex="1">
          <mxGeometry x="-3330" y="-1470" width="180" height="60" as="geometry" />
        </mxCell>
        <mxCell id="n1OMXjoGy5AxJ0GkvdNF-3" value="" style="strokeWidth=2;html=1;shape=mxgraph.flowchart.annotation_2;align=left;labelPosition=right;pointerEvents=1;direction=north;" parent="WIyWlLk6GJQsqaUBKTNV-1" vertex="1">
          <mxGeometry x="-3237.5" y="-1410" width="315" height="50" as="geometry" />
        </mxCell>
        <mxCell id="n1OMXjoGy5AxJ0GkvdNF-4" value="" style="strokeWidth=2;html=1;shape=mxgraph.flowchart.annotation_2;align=left;labelPosition=right;pointerEvents=1;direction=north;" parent="WIyWlLk6GJQsqaUBKTNV-1" vertex="1">
          <mxGeometry x="-2894" y="-100" width="415" height="100" as="geometry" />
        </mxCell>
        <mxCell id="n1OMXjoGy5AxJ0GkvdNF-5" value="" style="strokeWidth=2;html=1;shape=mxgraph.flowchart.annotation_2;align=left;labelPosition=right;pointerEvents=1;direction=north;" parent="WIyWlLk6GJQsqaUBKTNV-1" vertex="1">
          <mxGeometry x="-2250" y="250" width="505" height="50" as="geometry" />
        </mxCell>
        <mxCell id="n1OMXjoGy5AxJ0GkvdNF-8" value="" style="strokeWidth=2;html=1;shape=mxgraph.flowchart.annotation_2;align=left;labelPosition=right;pointerEvents=1;direction=north;" parent="WIyWlLk6GJQsqaUBKTNV-1" vertex="1">
          <mxGeometry x="-1480" y="240" width="640" height="50" as="geometry" />
        </mxCell>
        <mxCell id="n1OMXjoGy5AxJ0GkvdNF-9" value="" style="endArrow=none;html=1;rounded=0;entryX=0.45;entryY=0.979;entryDx=0;entryDy=0;entryPerimeter=0;exitX=1;exitY=0;exitDx=0;exitDy=0;exitPerimeter=0;" parent="WIyWlLk6GJQsqaUBKTNV-1" source="n1OMXjoGy5AxJ0GkvdNF-8" target="DZPZUwkXxejj2CQEaa6J-90" edge="1">
          <mxGeometry width="50" height="50" relative="1" as="geometry">
            <mxPoint x="-1480" y="235" as="sourcePoint" />
            <mxPoint x="-1430" y="185" as="targetPoint" />
          </mxGeometry>
        </mxCell>
        <mxCell id="n1OMXjoGy5AxJ0GkvdNF-10" value="" style="strokeWidth=2;html=1;shape=mxgraph.flowchart.annotation_2;align=left;labelPosition=right;pointerEvents=1;direction=north;" parent="WIyWlLk6GJQsqaUBKTNV-1" vertex="1">
          <mxGeometry x="-1080" y="-130" width="570" height="50" as="geometry" />
        </mxCell>
        <mxCell id="xb_Y_HTSk1hfgIz4tiNM-1" value="" style="strokeWidth=2;html=1;shape=mxgraph.flowchart.annotation_2;align=left;labelPosition=right;pointerEvents=1;direction=north;" parent="WIyWlLk6GJQsqaUBKTNV-1" vertex="1">
          <mxGeometry x="-360" y="-310" width="300" height="50" as="geometry" />
        </mxCell>
        <mxCell id="xb_Y_HTSk1hfgIz4tiNM-2" value="" style="endArrow=none;html=1;rounded=0;" parent="WIyWlLk6GJQsqaUBKTNV-1" edge="1">
          <mxGeometry width="50" height="50" relative="1" as="geometry">
            <mxPoint x="-550" y="-310" as="sourcePoint" />
            <mxPoint x="-550" y="-410" as="targetPoint" />
          </mxGeometry>
        </mxCell>
        <mxCell id="xb_Y_HTSk1hfgIz4tiNM-3" value="" style="endArrow=none;html=1;rounded=0;" parent="WIyWlLk6GJQsqaUBKTNV-1" edge="1">
          <mxGeometry width="50" height="50" relative="1" as="geometry">
            <mxPoint x="-550" y="-310" as="sourcePoint" />
            <mxPoint x="-430" y="-310" as="targetPoint" />
          </mxGeometry>
        </mxCell>
        <mxCell id="xb_Y_HTSk1hfgIz4tiNM-5" value="" style="endArrow=none;html=1;rounded=0;" parent="WIyWlLk6GJQsqaUBKTNV-1" edge="1">
          <mxGeometry width="50" height="50" relative="1" as="geometry">
            <mxPoint x="-430" y="-80" as="sourcePoint" />
            <mxPoint x="-430" y="-310" as="targetPoint" />
          </mxGeometry>
        </mxCell>
        <mxCell id="xb_Y_HTSk1hfgIz4tiNM-8" value="" style="endArrow=none;html=1;rounded=0;" parent="WIyWlLk6GJQsqaUBKTNV-1" edge="1">
          <mxGeometry width="50" height="50" relative="1" as="geometry">
            <mxPoint x="-3080" as="sourcePoint" />
            <mxPoint x="-3080" y="-1360" as="targetPoint" />
          </mxGeometry>
        </mxCell>
        <mxCell id="xb_Y_HTSk1hfgIz4tiNM-9" value="" style="endArrow=none;html=1;rounded=0;entryX=0;entryY=0.5;entryDx=0;entryDy=0;entryPerimeter=0;" parent="WIyWlLk6GJQsqaUBKTNV-1" target="n1OMXjoGy5AxJ0GkvdNF-4" edge="1">
          <mxGeometry width="50" height="50" relative="1" as="geometry">
            <mxPoint x="-3080" as="sourcePoint" />
            <mxPoint x="-2728" as="targetPoint" />
          </mxGeometry>
        </mxCell>
        <mxCell id="xb_Y_HTSk1hfgIz4tiNM-12" value="" style="endArrow=none;html=1;rounded=0;exitX=0;exitY=0.5;exitDx=0;exitDy=0;exitPerimeter=0;" parent="WIyWlLk6GJQsqaUBKTNV-1" source="n1OMXjoGy5AxJ0GkvdNF-10" edge="1">
          <mxGeometry width="50" height="50" relative="1" as="geometry">
            <mxPoint x="-480" y="-30" as="sourcePoint" />
            <mxPoint x="-430" y="-80" as="targetPoint" />
          </mxGeometry>
        </mxCell>
        <mxCell id="xb_Y_HTSk1hfgIz4tiNM-13" value="" style="endArrow=none;html=1;rounded=0;" parent="WIyWlLk6GJQsqaUBKTNV-1" edge="1">
          <mxGeometry width="50" height="50" relative="1" as="geometry">
            <mxPoint x="480" y="-210" as="sourcePoint" />
            <mxPoint x="485" y="-540" as="targetPoint" />
          </mxGeometry>
        </mxCell>
        <mxCell id="xb_Y_HTSk1hfgIz4tiNM-15" value="" style="strokeWidth=2;html=1;shape=mxgraph.flowchart.annotation_2;align=left;labelPosition=right;pointerEvents=1;direction=north;" parent="WIyWlLk6GJQsqaUBKTNV-1" vertex="1">
          <mxGeometry x="-210" y="-260" width="420" height="50" as="geometry" />
        </mxCell>
        <mxCell id="xb_Y_HTSk1hfgIz4tiNM-17" value="" style="strokeWidth=2;html=1;shape=mxgraph.flowchart.annotation_2;align=left;labelPosition=right;pointerEvents=1;direction=north;" parent="WIyWlLk6GJQsqaUBKTNV-1" vertex="1">
          <mxGeometry x="-2000" y="290" width="840" height="50" as="geometry" />
        </mxCell>
        <mxCell id="xb_Y_HTSk1hfgIz4tiNM-18" value="" style="strokeWidth=2;html=1;shape=mxgraph.flowchart.annotation_2;align=left;labelPosition=right;pointerEvents=1;direction=north;" parent="WIyWlLk6GJQsqaUBKTNV-1" vertex="1">
          <mxGeometry y="-210" width="480" height="50" as="geometry" />
        </mxCell>
        <mxCell id="xb_Y_HTSk1hfgIz4tiNM-19" value="" style="strokeWidth=2;html=1;shape=mxgraph.flowchart.annotation_2;align=left;labelPosition=right;pointerEvents=1;direction=north;" parent="WIyWlLk6GJQsqaUBKTNV-1" vertex="1">
          <mxGeometry x="560" y="-1120" width="360" height="50" as="geometry" />
        </mxCell>
        <mxCell id="xb_Y_HTSk1hfgIz4tiNM-20" value="" style="endArrow=none;html=1;rounded=0;" parent="WIyWlLk6GJQsqaUBKTNV-1" edge="1">
          <mxGeometry width="50" height="50" relative="1" as="geometry">
            <mxPoint x="740" y="130" as="sourcePoint" />
            <mxPoint x="740" y="-1070" as="targetPoint" />
          </mxGeometry>
        </mxCell>
        <mxCell id="xb_Y_HTSk1hfgIz4tiNM-23" value="" style="endArrow=none;html=1;rounded=0;" parent="WIyWlLk6GJQsqaUBKTNV-1" source="xb_Y_HTSk1hfgIz4tiNM-17" edge="1">
          <mxGeometry width="50" height="50" relative="1" as="geometry">
            <mxPoint x="-1630" y="390" as="sourcePoint" />
            <mxPoint x="-1580" y="340" as="targetPoint" />
            <Array as="points">
              <mxPoint x="-1580" y="410" />
            </Array>
          </mxGeometry>
        </mxCell>
        <mxCell id="xb_Y_HTSk1hfgIz4tiNM-24" value="" style="endArrow=none;html=1;rounded=0;" parent="WIyWlLk6GJQsqaUBKTNV-1" edge="1">
          <mxGeometry width="50" height="50" relative="1" as="geometry">
            <mxPoint x="-2870" y="410" as="sourcePoint" />
            <mxPoint x="-2870" as="targetPoint" />
          </mxGeometry>
        </mxCell>
        <mxCell id="xb_Y_HTSk1hfgIz4tiNM-25" value="" style="endArrow=none;html=1;rounded=0;" parent="WIyWlLk6GJQsqaUBKTNV-1" target="xb_Y_HTSk1hfgIz4tiNM-30" edge="1">
          <mxGeometry width="50" height="50" relative="1" as="geometry">
            <mxPoint x="-2870" y="410" as="sourcePoint" />
            <mxPoint x="-160" y="390" as="targetPoint" />
          </mxGeometry>
        </mxCell>
        <mxCell id="xb_Y_HTSk1hfgIz4tiNM-27" value="" style="strokeWidth=2;html=1;shape=mxgraph.flowchart.annotation_2;align=left;labelPosition=right;pointerEvents=1;direction=north;" parent="WIyWlLk6GJQsqaUBKTNV-1" vertex="1">
          <mxGeometry x="-570" y="-75" width="810" height="50" as="geometry" />
        </mxCell>
        <mxCell id="xb_Y_HTSk1hfgIz4tiNM-28" value="" style="endArrow=none;html=1;rounded=0;exitX=1;exitY=1;exitDx=0;exitDy=0;exitPerimeter=0;" parent="WIyWlLk6GJQsqaUBKTNV-1" source="xb_Y_HTSk1hfgIz4tiNM-27" target="xb_Y_HTSk1hfgIz4tiNM-18" edge="1">
          <mxGeometry width="50" height="50" relative="1" as="geometry">
            <mxPoint x="240" y="-80" as="sourcePoint" />
            <mxPoint x="290" y="-130" as="targetPoint" />
          </mxGeometry>
        </mxCell>
        <mxCell id="xb_Y_HTSk1hfgIz4tiNM-29" value="" style="endArrow=none;html=1;rounded=0;entryX=0;entryY=0.5;entryDx=0;entryDy=0;entryPerimeter=0;" parent="WIyWlLk6GJQsqaUBKTNV-1" target="xb_Y_HTSk1hfgIz4tiNM-27" edge="1">
          <mxGeometry width="50" height="50" relative="1" as="geometry">
            <mxPoint x="-160" y="390" as="sourcePoint" />
            <mxPoint x="-110" y="340" as="targetPoint" />
          </mxGeometry>
        </mxCell>
        <mxCell id="xb_Y_HTSk1hfgIz4tiNM-30" value="" style="strokeWidth=2;html=1;shape=mxgraph.flowchart.annotation_2;align=left;labelPosition=right;pointerEvents=1;direction=north;" parent="WIyWlLk6GJQsqaUBKTNV-1" vertex="1">
          <mxGeometry x="-160" y="365" width="900" height="50" as="geometry" />
        </mxCell>
        <mxCell id="xb_Y_HTSk1hfgIz4tiNM-31" value="" style="endArrow=none;html=1;rounded=0;exitX=1;exitY=1;exitDx=0;exitDy=0;exitPerimeter=0;" parent="WIyWlLk6GJQsqaUBKTNV-1" source="xb_Y_HTSk1hfgIz4tiNM-30" edge="1">
          <mxGeometry width="50" height="50" relative="1" as="geometry">
            <mxPoint x="690" y="180" as="sourcePoint" />
            <mxPoint x="740" y="130" as="targetPoint" />
          </mxGeometry>
        </mxCell>
        <mxCell id="xb_Y_HTSk1hfgIz4tiNM-32" value="end" style="strokeWidth=2;html=1;shape=mxgraph.flowchart.start_1;whiteSpace=wrap;" parent="WIyWlLk6GJQsqaUBKTNV-1" vertex="1">
          <mxGeometry x="240" y="415" width="100" height="60" as="geometry" />
        </mxCell>
      </root>
    </mxGraphModel>
  </diagram>
</mxfile>
